<svg width="24" height="25" viewBox="0 0 24 25" fill="none" xmlns="http://www.w3.org/2000/svg">
<path fill-rule="evenodd" clip-rule="evenodd" d="M13.7545 4.59937L14.9697 3.38413C15.2626 3.09124 15.7375 3.09124 16.0304 3.38413C16.3233 3.67702 16.3233 4.1519 16.0304 4.44479L14.9172 5.55794C15.4381 6.20189 15.75 7.02176 15.75 7.91449V8.46732C16.5154 9.0547 17.1653 9.81312 17.6625 10.6914L18.9697 9.38416C19.2626 9.09127 19.7374 9.09127 20.0303 9.38416C20.3232 9.67705 20.3232 10.1519 20.0303 10.4448L18.5303 11.9448C18.4601 12.015 18.3794 12.0684 18.2933 12.105C18.5133 12.7555 18.6587 13.4469 18.7188 14.1645H21C21.4142 14.1645 21.75 14.5003 21.75 14.9145C21.75 15.3287 21.4142 15.6645 21 15.6645H18.7183C18.6578 16.3794 18.5116 17.0709 18.2905 17.7228C18.3777 17.7594 18.4594 17.8132 18.5303 17.8842L20.0303 19.3842C20.3232 19.6771 20.3232 20.1519 20.0303 20.4448C19.7374 20.7377 19.2626 20.7377 18.9697 20.4448L17.6604 19.1355C16.474 21.2368 14.4192 22.6645 12 22.6645C9.58078 22.6645 7.52598 21.2368 6.33961 19.1355L5.03033 20.4448C4.73744 20.7377 4.26256 20.7377 3.96967 20.4448C3.67678 20.1519 3.67678 19.6771 3.96967 19.3842L5.46967 17.8842C5.54064 17.8132 5.62229 17.7594 5.70945 17.7228C5.48838 17.0709 5.3422 16.3794 5.28165 15.6645H3C2.58579 15.6645 2.25 15.3287 2.25 14.9145C2.25 14.5003 2.58579 14.1645 3 14.1645H5.28123C5.34127 13.4469 5.48667 12.7555 5.70672 12.105C5.62058 12.0684 5.5399 12.015 5.46967 11.9448L3.96967 10.4448C3.67678 10.1519 3.67678 9.67705 3.96967 9.38416C4.26256 9.09127 4.73744 9.09127 5.03033 9.38416L6.33752 10.6914C6.83465 9.81312 7.48455 9.0547 8.25 8.46732V7.91449C8.25 7.02176 8.56195 6.20189 9.08279 5.55794L7.96967 4.44482C7.67678 4.15193 7.67678 3.67705 7.96967 3.38416C8.26256 3.09127 8.73744 3.09127 9.03033 3.38416L10.2455 4.59937C10.769 4.32175 11.3662 4.16449 12 4.16449C12.6338 4.16449 13.231 4.32175 13.7545 4.59937ZM9.75 8.16449H14.25V7.91449C14.25 6.67185 13.2426 5.66449 12 5.66449C10.7574 5.66449 9.75 6.67185 9.75 7.91449V8.16449ZM9.15392 9.66449C7.72857 10.7639 6.75 12.6854 6.75 14.9145C6.75 18.1559 8.78002 20.6705 11.25 21.0997V9.66449H9.15392ZM12.75 9.66449V21.0997C15.22 20.6705 17.25 18.1559 17.25 14.9145C17.25 12.6854 16.2714 10.7639 14.8461 9.66449H12.75Z" fill="#838383"/>
</svg>
