<svg width="547" height="55" viewBox="0 0 547 55" fill="none" xmlns="http://www.w3.org/2000/svg">
<rect width="547" height="54" transform="translate(0 0.221436)" fill="#EE723D"/>
<path d="M243.266 32.2214V22.0396H246.895C247.687 22.0396 248.344 22.1838 248.864 22.4721C249.384 22.7605 249.774 23.1549 250.032 23.6554C250.291 24.1525 250.42 24.7127 250.42 25.3358C250.42 25.9622 250.289 26.5256 250.027 27.0261C249.769 27.5233 249.378 27.9177 248.854 28.2094C248.334 28.4977 247.679 28.6419 246.89 28.6419H244.395V27.3393H246.751C247.252 27.3393 247.658 27.2532 247.969 27.0808C248.281 26.9051 248.509 26.6665 248.655 26.3649C248.801 26.0633 248.874 25.7203 248.874 25.3358C248.874 24.9513 248.801 24.6099 248.655 24.3116C248.509 24.0133 248.279 23.7797 247.964 23.6106C247.653 23.4416 247.242 23.3571 246.731 23.3571H244.802V32.2214H243.266ZM252.721 32.2214V22.0396H256.35C257.139 22.0396 257.794 22.1755 258.314 22.4473C258.838 22.7191 259.229 23.0953 259.487 23.5758C259.746 24.0531 259.875 24.605 259.875 25.2314C259.875 25.8545 259.744 26.403 259.483 26.877C259.224 27.3476 258.833 27.7139 258.309 27.9757C257.789 28.2375 257.134 28.3685 256.345 28.3685H253.596V27.046H256.206C256.703 27.046 257.108 26.9747 257.419 26.8322C257.734 26.6897 257.965 26.4826 258.11 26.2108C258.256 25.939 258.329 25.6125 258.329 25.2314C258.329 24.8469 258.255 24.5138 258.105 24.2321C257.96 23.9504 257.729 23.7349 257.414 23.5858C257.103 23.4333 256.693 23.3571 256.186 23.3571H254.257V32.2214H252.721ZM257.747 27.6277L260.263 32.2214H258.513L256.047 27.6277H257.747ZM262.245 32.2214V22.0396H268.628V23.3621H263.781V26.4643H268.295V27.7818H263.781V30.899H268.688V32.2214H262.245ZM274.476 32.2214H271.18V22.0396H274.581C275.578 22.0396 276.435 22.2435 277.151 22.6511C277.867 23.0555 278.415 23.6372 278.797 24.3962C279.181 25.1518 279.373 26.0583 279.373 27.1156C279.373 28.1762 279.179 29.0877 278.792 29.85C278.407 30.6123 277.85 31.1989 277.121 31.6099C276.392 32.0176 275.51 32.2214 274.476 32.2214ZM272.716 30.8791H274.392C275.167 30.8791 275.812 30.7333 276.326 30.4416C276.839 30.1466 277.224 29.7207 277.479 29.1639C277.734 28.6038 277.862 27.921 277.862 27.1156C277.862 26.3168 277.734 25.639 277.479 25.0822C277.227 24.5254 276.851 24.1028 276.351 23.8145C275.85 23.5261 275.229 23.3819 274.486 23.3819H272.716V30.8791ZM283.32 22.0396V32.2214H281.784V22.0396H283.32ZM294.514 25.3507H292.963C292.903 25.0193 292.792 24.7276 292.63 24.4757C292.467 24.2238 292.268 24.01 292.033 23.8344C291.798 23.6587 291.534 23.5261 291.242 23.4366C290.954 23.3471 290.648 23.3024 290.323 23.3024C289.736 23.3024 289.211 23.4499 288.747 23.7449C288.286 24.0399 287.921 24.4724 287.653 25.0425C287.388 25.6125 287.255 26.3086 287.255 27.1305C287.255 27.9591 287.388 28.6585 287.653 29.2285C287.921 29.7986 288.288 30.2295 288.752 30.5212C289.216 30.8128 289.738 30.9587 290.318 30.9587C290.639 30.9587 290.944 30.9156 291.233 30.8294C291.524 30.7399 291.788 30.609 292.023 30.4366C292.258 30.2643 292.457 30.0538 292.62 29.8052C292.785 29.5533 292.9 29.265 292.963 28.9402L294.514 28.9452C294.431 29.4456 294.27 29.9063 294.032 30.3273C293.796 30.7449 293.493 31.1061 293.122 31.4111C292.754 31.7127 292.333 31.9463 291.859 32.1121C291.385 32.2778 290.868 32.3606 290.308 32.3606C289.426 32.3606 288.641 32.1518 287.951 31.7342C287.262 31.3133 286.718 30.7117 286.321 29.9295C285.926 29.1473 285.729 28.2143 285.729 27.1305C285.729 26.0434 285.928 25.1104 286.326 24.3315C286.723 23.5493 287.267 22.9494 287.956 22.5318C288.646 22.1109 289.429 21.9004 290.308 21.9004C290.848 21.9004 291.352 21.9783 291.819 22.1341C292.29 22.2865 292.712 22.5119 293.087 22.8102C293.461 23.1052 293.771 23.4665 294.017 23.894C294.262 24.3183 294.428 24.8038 294.514 25.3507ZM296.35 23.3621V22.0396H304.23V23.3621H301.053V32.2214H299.522V23.3621H296.35Z" fill="white"/>
</svg>
