<svg width="24" height="25" viewBox="0 0 24 25" fill="none" xmlns="http://www.w3.org/2000/svg">
<path fill-rule="evenodd" clip-rule="evenodd" d="M8 5.41449H6C5.17157 5.41449 4.5 6.08606 4.5 6.91449V8.91449C4.5 9.74292 5.17157 10.4145 6 10.4145H8C8.82843 10.4145 9.5 9.74292 9.5 8.91449V6.91449C9.5 6.08606 8.82843 5.41449 8 5.41449ZM6 3.91449C4.34315 3.91449 3 5.25764 3 6.91449V8.91449C3 10.5713 4.34315 11.9145 6 11.9145H8C9.65685 11.9145 11 10.5713 11 8.91449V6.91449C11 5.25764 9.65685 3.91449 8 3.91449H6Z" fill="#FF6647"/>
<path fill-rule="evenodd" clip-rule="evenodd" d="M8 15.4145H6C5.17157 15.4145 4.5 16.0861 4.5 16.9145V18.9145C4.5 19.7429 5.17157 20.4145 6 20.4145H8C8.82843 20.4145 9.5 19.7429 9.5 18.9145V16.9145C9.5 16.0861 8.82843 15.4145 8 15.4145ZM6 13.9145C4.34315 13.9145 3 15.2576 3 16.9145V18.9145C3 20.5713 4.34315 21.9145 6 21.9145H8C9.65685 21.9145 11 20.5713 11 18.9145V16.9145C11 15.2576 9.65685 13.9145 8 13.9145H6Z" fill="#FF6647"/>
<path fill-rule="evenodd" clip-rule="evenodd" d="M18 5.41449H16C15.1716 5.41449 14.5 6.08606 14.5 6.91449V8.91449C14.5 9.74292 15.1716 10.4145 16 10.4145H18C18.8284 10.4145 19.5 9.74292 19.5 8.91449V6.91449C19.5 6.08606 18.8284 5.41449 18 5.41449ZM16 3.91449C14.3431 3.91449 13 5.25764 13 6.91449V8.91449C13 10.5713 14.3431 11.9145 16 11.9145H18C19.6569 11.9145 21 10.5713 21 8.91449V6.91449C21 5.25764 19.6569 3.91449 18 3.91449H16Z" fill="#FF6647"/>
<path fill-rule="evenodd" clip-rule="evenodd" d="M18 15.4145H16C15.1716 15.4145 14.5 16.0861 14.5 16.9145V18.9145C14.5 19.7429 15.1716 20.4145 16 20.4145H18C18.8284 20.4145 19.5 19.7429 19.5 18.9145V16.9145C19.5 16.0861 18.8284 15.4145 18 15.4145ZM16 13.9145C14.3431 13.9145 13 15.2576 13 16.9145V18.9145C13 20.5713 14.3431 21.9145 16 21.9145H18C19.6569 21.9145 21 20.5713 21 18.9145V16.9145C21 15.2576 19.6569 13.9145 18 13.9145H16Z" fill="#FF6647"/>
</svg>
