<svg width="24" height="25" viewBox="0 0 24 25" fill="none" xmlns="http://www.w3.org/2000/svg">
<path fill-rule="evenodd" clip-rule="evenodd" d="M16.5303 10.4448C16.8232 10.1519 16.8232 9.67705 16.5303 9.38416C16.2374 9.09127 15.7626 9.09127 15.4697 9.38416L13.3409 11.513C12.9442 11.291 12.4869 11.1645 12 11.1645C10.4812 11.1645 9.25 12.3957 9.25 13.9145C9.25 15.4333 10.4812 16.6645 12 16.6645C13.5188 16.6645 14.75 15.4333 14.75 13.9145C14.75 13.4276 14.6235 12.9703 14.4015 12.5736L16.5303 10.4448ZM10.75 13.9145C10.75 13.2241 11.3096 12.6645 12 12.6645C12.6904 12.6645 13.25 13.2241 13.25 13.9145C13.25 14.6048 12.6904 15.1645 12 15.1645C11.3096 15.1645 10.75 14.6048 10.75 13.9145Z" fill="#838383"/>
<path fill-rule="evenodd" clip-rule="evenodd" d="M12 5.66449C7.44365 5.66449 3.75 9.35814 3.75 13.9145C3.75 16.1957 4.67491 18.2595 6.17201 19.7538C6.46519 20.0464 6.46564 20.5212 6.17303 20.8144C5.88042 21.1076 5.40554 21.108 5.11237 20.8154C3.34488 19.0513 2.25 16.6101 2.25 13.9145C2.25 8.52971 6.61522 4.16449 12 4.16449C17.3848 4.16449 21.75 8.52971 21.75 13.9145C21.75 16.6067 20.6579 19.0452 18.8943 20.8088C18.6014 21.1017 18.1265 21.1017 17.8336 20.8088C17.5407 20.5159 17.5407 20.041 17.8336 19.7481C19.3274 18.2543 20.25 16.1929 20.25 13.9145C20.25 9.35814 16.5563 5.66449 12 5.66449Z" fill="#838383"/>
</svg>
