<svg width="21" height="16" viewBox="0 0 21 16" fill="none" xmlns="http://www.w3.org/2000/svg">
<path d="M14.1042 11.9607V13.1778C14.1042 14.52 12.7021 15.6119 10.9786 15.6119H3.12558C1.40208 15.6119 0 14.52 0 13.1778V2.46748C0 1.12525 1.40208 0.0333252 3.12558 0.0333252H10.9786C12.7021 0.0333252 14.1042 1.12525 14.1042 2.46748V3.68456C14.1042 4.02068 13.7544 4.2931 13.3228 4.2931C12.8912 4.2931 12.5414 4.02068 12.5414 3.68456V2.46748C12.5414 1.79642 11.8403 1.2504 10.9786 1.2504H3.12558C2.26391 1.2504 1.56279 1.79642 1.56279 2.46748V13.1778C1.56279 13.8488 2.26391 14.3948 3.12558 14.3948H10.9786C11.8403 14.3948 12.5414 13.8488 12.5414 13.1778V11.9607C12.5414 11.6246 12.8912 11.3521 13.3228 11.3521C13.7544 11.3521 14.1042 11.6246 14.1042 11.9607ZM19.4315 6.77729L17.6818 5.41462C17.3766 5.1769 16.8818 5.1769 16.5767 5.41462C16.2715 5.65221 16.2715 6.03754 16.5767 6.27513L17.8213 7.24451H8.43905C8.00746 7.24451 7.65766 7.51693 7.65766 7.85305C7.65766 8.18917 8.00746 8.46159 8.43905 8.46159H17.8213L16.5767 9.43097C16.2715 9.66856 16.2715 10.0539 16.5767 10.2915C16.7293 10.4103 16.9292 10.4698 17.1292 10.4698C17.3292 10.4698 17.5292 10.4103 17.6818 10.2915L19.4315 8.92881C20.1932 8.3356 20.1932 7.3705 19.4315 6.77729Z" fill="#838383"/>
</svg>
