<svg width="22" height="17" viewBox="0 0 22 17" fill="none" xmlns="http://www.w3.org/2000/svg">
<path d="M6.88386 4.66592L6.87951 3.44885C6.87471 2.10662 8.27288 1.00969 9.99636 1.00353L17.8493 0.975463C19.5728 0.969303 20.9788 2.05621 20.9836 3.39843L21.0219 14.1086C21.0267 15.4509 19.6285 16.5478 17.905 16.554L10.052 16.582C8.32857 16.5882 6.92259 15.5013 6.91779 14.1591L6.91344 12.942C6.91224 12.6059 7.26106 12.3322 7.69266 12.3307C8.12425 12.3291 8.47502 12.6003 8.47622 12.9364L8.48057 14.1535C8.48297 14.8245 9.18603 15.368 10.0477 15.365L17.9007 15.3369C18.7623 15.3338 19.4615 14.7853 19.4591 14.1142L19.4208 3.40402C19.4184 2.73296 18.7153 2.18945 17.8537 2.19253L10.0007 2.2206C9.13905 2.22368 8.43989 2.77221 8.44229 3.44326L8.44664 4.66033C8.44784 4.99645 8.09902 5.27011 7.66742 5.27166C7.23583 5.2732 6.88506 5.00204 6.88386 4.66592ZM1.57505 9.86832L3.32966 11.2247C3.63574 11.4614 4.13051 11.4596 4.43474 11.2208C4.73912 10.9821 4.73774 10.5968 4.43167 10.3603L3.18362 9.39535L12.5658 9.36181C12.9974 9.36027 13.3462 9.0866 13.345 8.75048C13.3438 8.41436 12.993 8.1432 12.5614 8.14474L3.17927 8.17828L4.42038 7.20445C4.72477 6.96577 4.72339 6.58045 4.41731 6.34395C4.26427 6.22564 4.06413 6.16692 3.86421 6.16764C3.66413 6.16835 3.46441 6.2285 3.31222 6.3479L1.56736 7.71682C0.807782 8.31274 0.811231 9.27784 1.57505 9.86832V9.86832Z" fill="#838383"/>
</svg>
