<svg width="24" height="25" viewBox="0 0 24 25" fill="none" xmlns="http://www.w3.org/2000/svg">
<path d="M18.0525 15.677C18.1381 15.8103 18.2619 15.9144 18.4048 15.9829C19.4964 16.507 20.25 17.6227 20.25 18.9145V20.9145C20.25 21.3287 20.5858 21.6645 21 21.6645C21.4142 21.6645 21.75 21.3287 21.75 20.9145V18.9145C21.75 16.2911 19.6234 14.1645 17 14.1645C16.8913 14.1645 16.8423 14.3047 16.9245 14.3758C17.3598 14.7525 17.7403 15.1908 18.0525 15.677Z" fill="#838383"/>
<path fill-rule="evenodd" clip-rule="evenodd" d="M7 15.6645C5.20507 15.6645 3.75 17.1196 3.75 18.9145V20.9145C3.75 21.3287 3.41421 21.6645 3 21.6645C2.58579 21.6645 2.25 21.3287 2.25 20.9145V18.9145C2.25 16.2911 4.37665 14.1645 7 14.1645H13C15.6234 14.1645 17.75 16.2911 17.75 18.9145V20.9145C17.75 21.3287 17.4142 21.6645 17 21.6645C16.5858 21.6645 16.25 21.3287 16.25 20.9145V18.9145C16.25 17.1196 14.7949 15.6645 13 15.6645H7Z" fill="#838383"/>
<path d="M14.8704 10.472C14.9594 10.3029 15.1008 10.1678 15.2655 10.071C16.0042 9.63657 16.5 8.83343 16.5 7.91449C16.5 6.99555 16.0042 6.19241 15.2655 5.75798C15.1008 5.66113 14.9594 5.52609 14.8704 5.35701C14.6219 4.88459 14.3066 4.45276 13.9371 4.07403C13.8794 4.01486 13.9173 3.91449 14 3.91449C16.2091 3.91449 18 5.70535 18 7.91449C18 10.1236 16.2091 11.9145 14 11.9145C13.9173 11.9145 13.8794 11.8141 13.9371 11.755C14.3066 11.3762 14.6219 10.9444 14.8704 10.472Z" fill="#838383"/>
<path fill-rule="evenodd" clip-rule="evenodd" d="M10 10.4145C11.3807 10.4145 12.5 9.2952 12.5 7.91449C12.5 6.53378 11.3807 5.41449 10 5.41449C8.61929 5.41449 7.5 6.53378 7.5 7.91449C7.5 9.2952 8.61929 10.4145 10 10.4145ZM10 11.9145C12.2091 11.9145 14 10.1236 14 7.91449C14 5.70535 12.2091 3.91449 10 3.91449C7.79086 3.91449 6 5.70535 6 7.91449C6 10.1236 7.79086 11.9145 10 11.9145Z" fill="#838383"/>
</svg>
