<svg width="40" height="40" viewBox="0 0 40 40" fill="none" xmlns="http://www.w3.org/2000/svg">
<path d="M23.125 1.25H21.875C21.7929 1.25 21.7116 1.26616 21.6358 1.29757C21.56 1.32898 21.4911 1.37503 21.433 1.43307L20.4419 2.4242C20.3247 2.5414 20.1657 2.60723 20 2.60723C19.8342 2.60723 19.6753 2.5414 19.558 2.4242L18.5669 1.43307C18.5089 1.37503 18.44 1.32898 18.3641 1.29757C18.2883 1.26616 18.207 1.25 18.125 1.25H16.875C16.7929 1.25 16.7116 1.26616 16.6358 1.29757C16.56 1.32898 16.4911 1.37502 16.433 1.43305C16.375 1.49109 16.3289 1.55999 16.2975 1.63582C16.2661 1.71165 16.25 1.79292 16.25 1.875V10.2711L13.7455 11.7738L6.56487 7.58514C6.49105 7.54208 6.40918 7.51461 6.32433 7.50444C6.23947 7.49427 6.15343 7.50162 6.07152 7.52602C5.98962 7.55042 5.91359 7.59136 5.84813 7.64631C5.78267 7.70126 5.72918 7.76905 5.69097 7.8455L5.06597 9.0955C4.99925 9.22894 4.98246 9.38185 5.01862 9.5266L5.49203 11.4202L3.59837 11.8937C3.51091 11.9155 3.42921 11.9561 3.35889 12.0125C3.28857 12.0689 3.23128 12.1399 3.19097 12.2205L2.56597 13.4705C2.49494 13.6125 2.48065 13.7763 2.52598 13.9284C2.57132 14.0806 2.6729 14.2099 2.81007 14.2899L9.99997 18.484V21.516L2.81007 25.7101C2.6729 25.7901 2.57132 25.9194 2.52599 26.0715C2.48065 26.2237 2.49494 26.3875 2.56597 26.5295L3.19097 27.7795C3.23128 27.8601 3.28857 27.9311 3.35889 27.9875C3.42921 28.0439 3.51091 28.0845 3.59838 28.1063L5.49203 28.5797L5.01863 30.4734C4.98246 30.6181 4.99925 30.7711 5.06597 30.9045L5.69097 32.1545C5.72919 32.2309 5.78268 32.2987 5.84813 32.3537C5.91359 32.4086 5.98962 32.4496 6.07153 32.474C6.15343 32.4984 6.23947 32.5057 6.32433 32.4956C6.40919 32.4854 6.49105 32.4579 6.56488 32.4149L13.7455 28.2262L16.25 29.7289V38.125C16.25 38.2071 16.2661 38.2883 16.2975 38.3642C16.3289 38.44 16.375 38.5089 16.433 38.5669C16.4911 38.625 16.56 38.671 16.6358 38.7024C16.7116 38.7338 16.7929 38.75 16.875 38.75H18.125C18.207 38.75 18.2883 38.7338 18.3641 38.7024C18.44 38.671 18.5089 38.625 18.5669 38.5669L19.558 37.5758C19.6753 37.4586 19.8342 37.3928 20 37.3928C20.1657 37.3928 20.3247 37.4586 20.4419 37.5758L21.433 38.5669C21.4911 38.625 21.56 38.671 21.6358 38.7024C21.7116 38.7338 21.7929 38.75 21.875 38.75H23.125C23.207 38.75 23.2883 38.7338 23.3641 38.7024C23.44 38.671 23.5089 38.625 23.5669 38.5669C23.625 38.5089 23.671 38.44 23.7024 38.3642C23.7338 38.2883 23.75 38.2071 23.75 38.125V29.7289L26.2544 28.2262L33.4351 32.4149C33.5089 32.4579 33.5908 32.4854 33.6756 32.4956C33.7605 32.5057 33.8465 32.4984 33.9284 32.474C34.0103 32.4496 34.0864 32.4086 34.1518 32.3537C34.2173 32.2987 34.2708 32.2309 34.309 32.1545L34.934 30.9045C35.0007 30.7711 35.0175 30.6181 34.9813 30.4734L34.5079 28.5798L36.4016 28.1063C36.489 28.0845 36.5707 28.0439 36.6411 27.9875C36.7114 27.9311 36.7687 27.8601 36.809 27.7795L37.434 26.5295C37.505 26.3875 37.5193 26.2237 37.474 26.0716C37.4286 25.9194 37.327 25.7901 37.1899 25.7101L30 21.516V18.484L37.1899 14.2899C37.327 14.2099 37.4286 14.0806 37.474 13.9284C37.5193 13.7763 37.505 13.6125 37.434 13.4705L36.809 12.2205C36.7687 12.1399 36.7114 12.0689 36.641 12.0125C36.5707 11.9561 36.489 11.9155 36.4016 11.8937L34.5079 11.4202L34.9813 9.5266C35.0175 9.38185 35.0007 9.22894 34.934 9.0955L34.309 7.8455C34.2708 7.76905 34.2173 7.70126 34.1518 7.64631C34.0864 7.59136 34.0103 7.55042 33.9284 7.52602C33.8465 7.50162 33.7605 7.49427 33.6756 7.50444C33.5908 7.51461 33.5089 7.54208 33.4351 7.58514L26.2544 11.7738L23.75 10.2711V1.875C23.75 1.79292 23.7338 1.71165 23.7024 1.63582C23.671 1.55999 23.625 1.49109 23.5669 1.43305C23.5089 1.37502 23.44 1.32898 23.3641 1.29757C23.2883 1.26616 23.207 1.25 23.125 1.25V1.25ZM22.7905 15L23.855 16.5967C23.9117 16.6818 23.9885 16.7518 24.0786 16.8003L24.8835 17.2337L24.823 18.0805C24.8159 18.1799 24.8327 18.2796 24.8719 18.3712L25.57 20L24.8719 21.6288C24.8327 21.7204 24.8159 21.8201 24.823 21.9195L24.8835 22.7663L24.0786 23.1997C23.9885 23.2482 23.9117 23.3182 23.8549 23.4033L22.7905 25H21.25C21.1679 25 21.0866 25.0162 21.0108 25.0476C20.935 25.079 20.8661 25.125 20.808 25.1831L20 25.9911L19.1919 25.1831C19.1339 25.125 19.065 25.079 18.9891 25.0476C18.9133 25.0162 18.832 25 18.75 25H17.2094L16.145 23.4033C16.0882 23.3182 16.0114 23.2482 15.9213 23.1997L15.1165 22.7663L15.1769 21.9195C15.184 21.8201 15.1673 21.7204 15.128 21.6288L14.4299 20L15.128 18.3712C15.1673 18.2796 15.184 18.1799 15.1769 18.0805L15.1165 17.2337L15.9213 16.8003C16.0114 16.7518 16.0882 16.6818 16.145 16.5967L17.2094 15H18.75C18.832 15 18.9133 14.9838 18.9891 14.9524C19.065 14.921 19.1339 14.875 19.1919 14.8169L20 14.0089L20.808 14.8169C20.8661 14.875 20.935 14.921 21.0108 14.9524C21.0866 14.9838 21.1679 15 21.25 15H22.7905ZM17.1965 11.1609C17.2891 11.1054 17.3657 11.0268 17.4188 10.9329C17.472 10.839 17.5 10.7329 17.5 10.625V2.5H17.8661L18.6742 3.30807C18.8717 3.5063 19.1111 3.65762 19.375 3.75085V12.8661L18.4911 13.75H17.2288L16.078 11.832L17.1965 11.1609ZM6.51086 9.00074L13.4351 13.0399C13.5318 13.0963 13.6419 13.1257 13.7538 13.125C13.8658 13.1243 13.9755 13.0935 14.0716 13.0359L15.0062 12.4751L16.1355 14.3574L15.1914 15.7736L14.4833 16.1549L6.7941 11.4745L6.28739 9.44771L6.51086 9.00074ZM3.94605 13.5054L4.18042 13.0366L6.14815 12.5447L13.8638 17.2412L13.9193 18.0182L13.3378 19.375H11.25V18.125C11.25 18.0158 11.2213 17.9084 11.1669 17.8137C11.1125 17.719 11.0342 17.6402 10.9399 17.5851L3.94605 13.5054ZM4.18042 26.9634L3.94605 26.4946L10.9399 22.4149C11.0342 22.3598 11.1125 22.281 11.1669 22.1863C11.2213 22.0916 11.25 21.9842 11.25 21.875V20.625H13.3379L13.9193 21.9818L13.8638 22.7588L6.14815 27.4553L4.18042 26.9634ZM13.4351 26.9601L6.51086 30.9993L6.28739 30.5523L6.7941 28.5255L14.4833 23.8451L15.1914 24.2264L16.1355 25.6426L15.0062 27.5249L14.0716 26.9641C13.9756 26.9064 13.8658 26.8757 13.7538 26.875C13.6419 26.8743 13.5318 26.9037 13.4351 26.9601V26.9601ZM17.8661 37.5H17.5V29.375C17.5 29.2671 17.472 29.161 17.4188 29.0671C17.3657 28.9732 17.2891 28.8946 17.1965 28.8391L16.078 28.168L17.2288 26.25H18.4911L19.375 27.1339V36.2492C19.1111 36.3424 18.8717 36.4937 18.6742 36.6919L17.8661 37.5ZM22.8034 28.8391C22.7109 28.8946 22.6343 28.9732 22.5811 29.0671C22.5279 29.161 22.5 29.2671 22.5 29.375V37.5H22.1338L21.3258 36.6919C21.1283 36.4937 20.8888 36.3424 20.625 36.2492V27.1339L21.5088 26.25H22.7711L23.9219 28.168L22.8034 28.8391ZM33.4891 30.9993L26.5649 26.9601C26.4682 26.9037 26.3581 26.8743 26.2461 26.875C26.1341 26.8757 26.0244 26.9064 25.9284 26.9641L24.9937 27.5249L23.8644 25.6426L24.8085 24.2264L25.5167 23.8451L33.2058 28.5255L33.7125 30.5523L33.4891 30.9993ZM36.0539 26.4946L35.8195 26.9634L33.8518 27.4553L26.1361 22.7588L26.0806 21.9818L26.6621 20.625H28.75V21.875C28.75 21.9842 28.7786 22.0916 28.833 22.1863C28.8874 22.281 28.9657 22.3598 29.0601 22.4149L36.0539 26.4946ZM35.8195 13.0366L36.0539 13.5054L29.0601 17.5851C28.9657 17.6402 28.8874 17.719 28.833 17.8137C28.7786 17.9084 28.75 18.0158 28.75 18.125V19.375H26.6621L26.0806 18.0182L26.1361 17.2412L33.8518 12.5447L35.8195 13.0366ZM26.5649 13.0399L33.4891 9.00074L33.7125 9.44771L33.2058 11.4745L25.5167 16.1549L24.8085 15.7736L23.8644 14.3574L24.9937 12.4751L25.9284 13.0359C26.0244 13.0935 26.1341 13.1243 26.2461 13.125C26.3581 13.1257 26.4682 13.0963 26.5649 13.0399V13.0399ZM23.9219 11.832L22.7711 13.75H21.5088L20.625 12.8661V3.75085C20.8888 3.65762 21.1283 3.5063 21.3258 3.30807L22.1338 2.5H22.5V10.625C22.5 10.7329 22.5279 10.839 22.5811 10.9329C22.6343 11.0268 22.7109 11.1054 22.8034 11.1609L23.9219 11.832Z" fill="#7D257D"/>
<path d="M19.779 20.2209C19.75 20.25 19.7155 20.273 19.6776 20.2888C19.6397 20.3045 19.599 20.3126 19.558 20.3126C19.5169 20.3127 19.4762 20.3046 19.4383 20.2889C19.4004 20.2732 19.3659 20.2502 19.3369 20.2211C19.3078 20.1921 19.2848 20.1576 19.2691 20.1197C19.2534 20.0817 19.2453 20.0411 19.2453 20C19.2453 19.959 19.2534 19.9183 19.2692 19.8804C19.2849 19.8425 19.308 19.808 19.337 19.779L20.6628 18.4532C20.9557 18.1601 21.1202 17.7627 21.1201 17.3484C21.12 16.9341 20.9554 16.5368 20.6624 16.2439C20.3695 15.9509 19.9722 15.7863 19.5579 15.7863C19.1436 15.7862 18.7462 15.9507 18.4531 16.2435L16.0225 18.6742L16.9063 19.5581L19.3371 17.1274C19.3957 17.0688 19.4751 17.036 19.558 17.036C19.6408 17.036 19.7203 17.0689 19.7788 17.1275C19.8374 17.1861 19.8703 17.2655 19.8704 17.3484C19.8704 17.4312 19.8375 17.5107 19.779 17.5693L18.4531 18.8951C18.1603 19.1882 17.9958 19.5856 17.9959 19.9999C17.996 20.4142 18.1606 20.8115 18.4536 21.1045C18.7465 21.3974 19.1438 21.562 19.5581 21.5621C19.9725 21.5622 20.3698 21.3977 20.6629 21.1048L21.5467 20.221C21.5757 20.1919 21.6102 20.1689 21.6481 20.1531C21.686 20.1374 21.7267 20.1293 21.7677 20.1293C21.8088 20.1293 21.8495 20.1373 21.8874 20.153C21.9253 20.1687 21.9598 20.1918 21.9888 20.2208C22.0179 20.2498 22.0409 20.2843 22.0566 20.3222C22.0723 20.3602 22.0804 20.4008 22.0804 20.4419C22.0804 20.4829 22.0722 20.5236 22.0565 20.5615C22.0408 20.5994 22.0177 20.6339 21.9887 20.6629L21.3258 21.3258C20.9746 21.6777 20.7775 22.1545 20.7775 22.6516C20.7775 23.1488 20.9746 23.6256 21.3258 23.9775L22.2096 23.0936C22.0926 22.9763 22.0269 22.8174 22.0269 22.6516C22.0269 22.4859 22.0926 22.327 22.2096 22.2097L22.8725 21.5468C23.0178 21.4017 23.133 21.2295 23.2117 21.0398C23.2903 20.8502 23.3309 20.647 23.3309 20.4417C23.331 20.2364 23.2906 20.0331 23.2121 19.8435C23.1336 19.6538 23.0184 19.4815 22.8733 19.3363C22.7281 19.1912 22.5558 19.076 22.3661 18.9975C22.1765 18.919 21.9732 18.8786 21.7679 18.8787C21.5626 18.8788 21.3594 18.9193 21.1698 18.9979C20.9802 19.0766 20.8079 19.1918 20.6628 19.3371L19.779 20.2209Z" fill="#7D257D"/>
</svg>
