<svg width="24" height="25" viewBox="0 0 24 25" fill="none" xmlns="http://www.w3.org/2000/svg">
<path fill-rule="evenodd" clip-rule="evenodd" d="M12 15.4145C13.3807 15.4145 14.5 14.2952 14.5 12.9145C14.5 11.5338 13.3807 10.4145 12 10.4145C10.6193 10.4145 9.5 11.5338 9.5 12.9145C9.5 14.2952 10.6193 15.4145 12 15.4145ZM16 12.9145C16 15.1236 14.2091 16.9145 12 16.9145C9.79086 16.9145 8 15.1236 8 12.9145C8 10.7054 9.79086 8.91449 12 8.91449C14.2091 8.91449 16 10.7054 16 12.9145Z" fill="#838383"/>
<path fill-rule="evenodd" clip-rule="evenodd" d="M10.9047 3.75638L10.5172 4.91904C10.1904 5.89939 9.47332 6.59386 8.72215 7.01211C8.6581 7.04778 8.59468 7.08446 8.53191 7.12214C7.79325 7.56558 6.83194 7.84017 5.81832 7.63275L4.61654 7.38682C4.40569 7.34367 4.19089 7.44029 4.08329 7.62667L3.46231 8.70224C3.3547 8.88862 3.37843 9.12295 3.52122 9.28398L4.33624 10.2031C5.02029 10.9745 5.26525 11.9413 5.2516 12.8027C5.25042 12.8772 5.25042 12.9518 5.2516 13.0263C5.26524 13.8877 5.02028 14.8544 4.33624 15.6258L3.52122 16.5449C3.37843 16.706 3.3547 16.9403 3.46231 17.1267L4.08329 18.2022C4.19089 18.3886 4.40569 18.4852 4.61654 18.4421L5.81823 18.1962C6.83187 17.9888 7.7932 18.2634 8.53186 18.7068C8.59465 18.7445 8.65808 18.7812 8.72215 18.8169C9.47332 19.2351 10.1904 19.9296 10.5172 20.9099L10.9047 22.0726C10.9728 22.2768 11.1639 22.4145 11.3791 22.4145H12.621C12.8363 22.4145 13.0273 22.2768 13.0954 22.0726L13.4829 20.9099C13.8097 19.9296 14.5268 19.2351 15.278 18.8169C15.342 18.7812 15.4055 18.7445 15.4683 18.7068C16.2069 18.2634 17.1683 17.9888 18.1819 18.1962L19.3835 18.4421C19.5944 18.4852 19.8092 18.3886 19.9168 18.2022L20.5378 17.1267C20.6454 16.9403 20.6216 16.706 20.4789 16.5449L19.6639 15.6259C18.9798 14.8545 18.7349 13.8877 18.7485 13.0263C18.7497 12.9518 18.7497 12.8772 18.7485 12.8026C18.7349 11.9412 18.9798 10.9745 19.6639 10.203L20.4789 9.28398C20.6217 9.12295 20.6454 8.88863 20.5378 8.70224L19.9168 7.62667C19.8092 7.44029 19.5944 7.34368 19.3835 7.38682L18.1818 7.63274C17.1682 7.84016 16.2069 7.56557 15.4682 7.12214C15.4054 7.08446 15.342 7.04778 15.278 7.01211C14.5268 6.59386 13.8097 5.89939 13.4829 4.91904L13.0954 3.75637C13.0273 3.5522 12.8363 3.41449 12.621 3.41449H11.3791C11.1639 3.41449 10.9728 3.5522 10.9047 3.75638ZM9.09416 4.4447C8.91192 4.99143 8.49594 5.42122 7.99243 5.70158C7.91412 5.74518 7.83658 5.79003 7.75986 5.83609C7.26517 6.13306 6.68431 6.27888 6.11904 6.1632L4.91726 5.91727C4.07388 5.74469 3.21468 6.13114 2.78425 6.87667L2.16327 7.95224C1.73284 8.69777 1.82776 9.63508 2.39891 10.2792L3.21394 11.1983C3.59585 11.629 3.76091 12.2034 3.75179 12.7789C3.75036 12.8693 3.75036 12.9597 3.75179 13.05C3.76091 13.6256 3.59585 14.1999 3.21394 14.6306L2.39891 15.5497C1.82776 16.1938 1.73284 17.1311 2.16327 17.8767L2.78425 18.9522C3.21468 19.6978 4.07388 20.0842 4.91726 19.9116L6.11895 19.6657C6.68424 19.5501 7.2651 19.6959 7.7598 19.9929C7.83654 20.0389 7.91409 20.0838 7.99243 20.1274C8.49594 20.4078 8.91192 20.8376 9.09416 21.3843L9.48172 22.5469C9.75394 23.3636 10.5182 23.9145 11.3791 23.9145H12.621C13.4819 23.9145 14.2462 23.3636 14.5184 22.5469L14.906 21.3843C15.0882 20.8376 15.5042 20.4078 16.0077 20.1274C16.086 20.0838 16.1636 20.0389 16.2403 19.9929C16.735 19.6959 17.3159 19.5501 17.8812 19.6657L19.0828 19.9116C19.9262 20.0842 20.7854 19.6978 21.2158 18.9522L21.8368 17.8767C22.2672 17.1311 22.1723 16.1938 21.6012 15.5497L20.7862 14.6307C20.4043 14.2 20.2392 13.6256 20.2483 13.0501C20.2498 12.9597 20.2498 12.8692 20.2483 12.7789C20.2392 12.2033 20.4043 11.6289 20.7862 11.1982L21.6012 10.2792C22.1723 9.63508 22.2672 8.69777 21.8368 7.95224L21.2158 6.87667C20.7854 6.13115 19.9262 5.74469 19.0828 5.91728L17.8811 6.16319C17.3158 6.27887 16.735 6.13306 16.2403 5.83608C16.1635 5.79002 16.086 5.74518 16.0077 5.70158C15.5042 5.42122 15.0882 4.99143 14.906 4.44469L14.5184 3.28203C14.2462 2.46535 13.4819 1.91449 12.621 1.91449H11.3791C10.5182 1.91449 9.75394 2.46535 9.48172 3.28203L9.09416 4.4447Z" fill="#838383"/>
</svg>
