<svg width="20" height="21" viewBox="0 0 20 21" fill="none" xmlns="http://www.w3.org/2000/svg">
<path fill-rule="evenodd" clip-rule="evenodd" d="M3 20.9145C1.34315 20.9145 0 19.5713 0 17.9145V10.2506C0 9.4001 0.360964 8.58961 0.993106 8.02068L7.9931 1.72068C9.13402 0.693856 10.866 0.693855 12.0069 1.72068L19.0069 8.02068C19.639 8.58961 20 9.4001 20 10.2506V17.9145C20 19.5713 18.6569 20.9145 17 20.9145H3ZM18.5 10.2506V17.9145C18.5 18.7429 17.8284 19.4145 17 19.4145H14V13.9145C14 12.2576 12.6569 10.9145 11 10.9145H9C7.34315 10.9145 6 12.2576 6 13.9145V19.4145H3C2.17157 19.4145 1.5 18.7429 1.5 17.9145V10.2506C1.5 9.82533 1.68048 9.42008 1.99655 9.13562L8.99655 2.83562C9.56701 2.32221 10.433 2.32221 11.0034 2.83562L18.0034 9.13562C18.3195 9.42008 18.5 9.82533 18.5 10.2506ZM7.5 19.4145V13.9145C7.5 13.086 8.17157 12.4145 9 12.4145H11C11.8284 12.4145 12.5 13.086 12.5 13.9145V19.4145H7.5Z" fill="#838383"/>
</svg>
